<?xml version="1.0" encoding="utf-8"?>
<!-- Generator: Adobe Illustrator 21.0.0, SVG Export Plug-In . SVG Version: 6.00 Build 0)  -->
<svg version="1.1" id="Calque_1" xmlns="http://www.w3.org/2000/svg" xmlns:xlink="http://www.w3.org/1999/xlink" x="0px" y="0px"
	 viewBox="0 0 153 50.6" enable-background="new 0 0 153 50.6" xml:space="preserve">
<g>
	<g>
		<path fill="#193A68" d="M20.4,6.6c-1.3-0.4-2.4-0.7-3.2-0.9c-0.8-0.2-1.9-0.3-3.2-0.3c-2.4,0-4.2,1-5.5,2.9
			c-1.3,1.9-1.9,4.6-1.9,8c0,2.9,0.5,5.4,1.6,7.6c1.1,2.1,2.9,3.2,5.5,3.2c1.3,0,2.5-0.1,3.6-0.4s2.1-0.6,3-1l2.2,4.2
			c-1.2,0.6-2.5,1.1-4.2,1.4c-1.6,0.4-3.1,0.5-4.3,0.5c-4.7,0-8.1-1.5-10.2-4.5c-2.1-3-3.2-6.7-3.2-11c0-4.6,1.2-8.4,3.5-11.4
			C6.4,2,9.8,0.5,14.2,0.5c0.9,0,2.1,0.1,3.7,0.4c1.6,0.3,3,0.8,4.3,1.5L20.4,6.6z"/>
		<path fill="#193A68" d="M14,32.4c-4.9,0-8.4-1.6-10.7-4.7C1.1,24.6,0,20.8,0,16.3c0-4.7,1.2-8.7,3.6-11.7C6.1,1.6,9.6,0,14.2,0
			c0.9,0,2.2,0.1,3.8,0.5c1.6,0.3,3.1,0.8,4.5,1.6c0.2,0.1,0.4,0.4,0.2,0.7l-1.8,4.1c-0.1,0.3-0.4,0.4-0.7,0.3
			c-1.3-0.4-2.4-0.7-3.2-0.9c-0.8-0.2-1.8-0.3-3-0.3c-2.2,0-3.9,0.9-5.1,2.7c-1.2,1.8-1.9,4.4-1.9,7.7c0,2.8,0.5,5.3,1.6,7.3
			c1,1.9,2.6,2.9,5,2.9c1.2,0,2.4-0.1,3.4-0.4c1.1-0.3,2.1-0.6,2.9-0.9c0.3-0.1,0.6,0,0.7,0.3l2.2,4.2c0.1,0.3,0,0.6-0.2,0.7
			c-1.2,0.6-2.6,1.1-4.3,1.5C16.7,32.2,15.2,32.4,14,32.4z M14.2,1.1c-4.2,0-7.5,1.4-9.7,4.2c-2.3,2.8-3.4,6.6-3.4,11
			c0,4.2,1,7.8,3.1,10.7c2,2.8,5.3,4.3,9.8,4.3c1.2,0,2.6-0.2,4.2-0.5c1.3-0.3,2.5-0.7,3.5-1.1L20,26.4c-0.8,0.3-1.7,0.6-2.6,0.8
			c-1.1,0.3-2.4,0.4-3.7,0.4c-2.8,0-4.8-1.2-6-3.5C6.5,21.9,6,19.3,6,16.3C6,12.8,6.7,10,8,8c1.4-2.1,3.4-3.2,6-3.2
			c1.3,0,2.5,0.1,3.3,0.4c0.7,0.2,1.6,0.5,2.7,0.8l1.4-3.2c-1.1-0.6-2.4-1-3.7-1.2C16.2,1.2,15,1.1,14.2,1.1z"/>
	</g>
	<g>
		<path fill="#193A68" d="M45.5,31.3l-6.4-11.5c-0.3,0-0.7,0.1-1,0.1s-0.7,0-1.1,0h-3.3v11.4H28V1.2h9.4c3.3,0,6.1,0.8,8.4,2.3
			c2.3,1.5,3.5,3.8,3.5,7c0,1.9-0.5,3.5-1.4,4.8c-1,1.3-2.2,2.4-3.7,3.1l7.4,12.9H45.5z M37.2,5.9h-3.5v9.2h3.6c1.7,0,3.1-0.3,4.2-1
			c1.1-0.7,1.7-1.8,1.7-3.4c0-1.7-0.5-2.9-1.6-3.6C40.6,6.3,39.1,5.9,37.2,5.9z"/>
		<path fill="#193A68" d="M51.6,31.8h-6.1c-0.2,0-0.4-0.1-0.5-0.3l-6.2-11.2c-0.2,0-0.5,0-0.7,0c-0.4,0-0.7,0-1.1,0h-2.8v10.9
			c0,0.3-0.2,0.5-0.5,0.5H28c-0.3,0-0.5-0.2-0.5-0.5V1.2c0-0.3,0.2-0.5,0.5-0.5h9.4c3.4,0,6.3,0.8,8.7,2.3c2.5,1.6,3.7,4.1,3.7,7.4
			c0,2-0.5,3.7-1.5,5.1c-0.9,1.3-2,2.3-3.4,3L52,31c0.1,0.2,0.1,0.4,0,0.5C51.9,31.7,51.8,31.8,51.6,31.8z M45.8,30.7h4.8l-6.9-12.1
			c-0.1-0.1-0.1-0.3,0-0.4c0-0.1,0.1-0.3,0.3-0.3c1.4-0.7,2.6-1.7,3.5-2.9c0.9-1.2,1.3-2.8,1.3-4.5c0-3-1.1-5.1-3.2-6.5
			c-2.2-1.4-5-2.2-8.1-2.2h-8.9v29h4.6V19.8c0-0.3,0.2-0.5,0.5-0.5H37c0.3,0,0.7,0,1,0c0.3,0,0.7,0,1-0.1c0.2,0,0.4,0.1,0.5,0.3
			L45.8,30.7z M37.3,15.7h-3.6c-0.3,0-0.5-0.2-0.5-0.5V5.9c0-0.3,0.2-0.5,0.5-0.5h3.5c2,0,3.6,0.4,4.7,1.2c1.2,0.8,1.8,2.2,1.8,4.1
			c0,1.8-0.7,3.1-1.9,3.9C40.7,15.3,39.1,15.7,37.3,15.7z M34.2,14.6h3.1c1.6,0,2.9-0.3,4-1c1-0.6,1.4-1.6,1.4-3
			c0-1.5-0.4-2.5-1.4-3.2c-1-0.7-2.3-1-4.1-1h-3V14.6z"/>
	</g>
	<g>
		<path fill="#193A68" d="M68.9,1.2l11.7,29.3l-5.8,0.8l-2.7-7.1H60.7L58,31.3h-5.8L64,1.2H68.9z M66.3,9l-3.9,10.5h8L66.3,9z"/>
		<path fill="#193A68" d="M74.8,31.8c-0.2,0-0.4-0.1-0.5-0.4l-2.6-6.7H61.1l-2.5,6.7c-0.1,0.2-0.3,0.4-0.5,0.4h-5.8
			c-0.2,0-0.3-0.1-0.4-0.2c-0.1-0.1-0.1-0.3-0.1-0.5L63.5,1c0.1-0.2,0.3-0.3,0.5-0.3h4.9c0.2,0,0.4,0.1,0.5,0.3l11.7,29.3
			c0.1,0.2,0,0.3,0,0.5c-0.1,0.1-0.2,0.2-0.4,0.3L74.8,31.8C74.9,31.8,74.8,31.8,74.8,31.8z M53.1,30.7h4.6l2.5-6.7
			c0.1-0.2,0.3-0.4,0.5-0.4h11.4c0.2,0,0.4,0.1,0.5,0.4l2.5,6.7l4.6-0.6L68.5,1.7h-4.1L53.1,30.7z M70.3,20.1h-8
			c-0.2,0-0.3-0.1-0.4-0.2s-0.1-0.3-0.1-0.5l3.9-10.5c0.1-0.2,0.3-0.4,0.5-0.4h0c0.2,0,0.4,0.1,0.5,0.3l4,10.5
			c0.1,0.2,0,0.4-0.1,0.5C70.7,20,70.5,20.1,70.3,20.1z M63.2,19h6.4l-3.2-8.4L63.2,19z"/>
	</g>
	<g>
		<path fill="#193A68" d="M97.5,22.1l-7.2-9.2v18.4h-5.7V1.2h3.6l10.2,13.9l9.2-13.9h3.5v30.1h-5.8V13.9l-5.6,7.9L97.5,22.1z"/>
		<path fill="#193A68" d="M111.1,31.8h-5.8c-0.3,0-0.5-0.2-0.5-0.5V15.6l-4.6,6.5c-0.1,0.1-0.2,0.2-0.4,0.2l-2.2,0.3
			c-0.2,0-0.4-0.1-0.5-0.2l-6.2-8v16.8c0,0.3-0.2,0.5-0.5,0.5h-5.7c-0.3,0-0.5-0.2-0.5-0.5V1.2c0-0.3,0.2-0.5,0.5-0.5h3.6
			c0.2,0,0.3,0.1,0.4,0.2l9.7,13.3l8.8-13.2c0.1-0.2,0.3-0.2,0.5-0.2h3.5c0.3,0,0.5,0.2,0.5,0.5v30.1
			C111.6,31.6,111.4,31.8,111.1,31.8z M105.8,30.7h4.7v-29h-2.7l-9.1,13.7c-0.1,0.1-0.3,0.2-0.4,0.2c-0.2,0-0.3-0.1-0.5-0.2
			l-10-13.7h-2.8v29h4.6V12.9c0-0.2,0.1-0.4,0.4-0.5c0.2-0.1,0.5,0,0.6,0.2l7,9l1.7-0.2l5.5-7.7c0.1-0.2,0.4-0.3,0.6-0.2
			c0.2,0.1,0.4,0.3,0.4,0.5V30.7z"/>
	</g>
	<g>
		<path fill="#8BCF9C" d="M124.2,1.2v30.1h-5.7V1.2H124.2z"/>
		<path fill="#8BCF9C" d="M124.2,31.8h-5.7c-0.3,0-0.5-0.2-0.5-0.5V1.2c0-0.3,0.2-0.5,0.5-0.5h5.7c0.3,0,0.5,0.2,0.5,0.5v30.1
			C124.7,31.6,124.5,31.8,124.2,31.8z M119,30.7h4.6v-29H119V30.7z"/>
	</g>
	<g>
		<path fill="#8BCF9C" d="M145.8,18.5h-8.5v12.7h-5.7V1.2h17l0.9,4.5h-12.2V14h7.7L145.8,18.5z"/>
		<path fill="#8BCF9C" d="M137.3,31.8h-5.7c-0.3,0-0.5-0.2-0.5-0.5V1.2c0-0.3,0.2-0.5,0.5-0.5h17c0.3,0,0.5,0.2,0.5,0.4l0.9,4.5
			c0,0.2,0,0.3-0.1,0.5c-0.1,0.1-0.3,0.2-0.4,0.2h-11.7v7.3h7.1c0.3,0,0.5,0.2,0.5,0.4l0.8,4.5c0,0.2,0,0.3-0.1,0.4
			c-0.1,0.1-0.3,0.2-0.4,0.2h-8v12.2C137.9,31.6,137.6,31.8,137.3,31.8z M132.2,30.7h4.6V18.5c0-0.3,0.2-0.5,0.5-0.5h7.8l-0.6-3.4
			h-7.2c-0.3,0-0.5-0.2-0.5-0.5V5.7c0-0.3,0.2-0.5,0.5-0.5h11.6l-0.7-3.4h-16V30.7z"/>
	</g>
</g>
<path fill="#193A68" d="M5.8,38.9l2.6,6.6l-1.3,0.2l-0.6-1.6H3.9l-0.6,1.6H2l2.7-6.8H5.8z M5.2,40.7l-0.9,2.4h1.8L5.2,40.7z"/>
<path fill="#193A68" d="M11.9,42.2c-0.2-0.1-0.4-0.2-0.7-0.2c-0.2-0.1-0.4-0.1-0.6-0.1c-0.2,0-0.3,0-0.4,0.1s-0.1,0.2-0.1,0.3
	c0,0.1,0.1,0.2,0.2,0.2c0.1,0.1,0.3,0.2,0.5,0.2c0.4,0.1,0.8,0.4,1.1,0.6s0.5,0.6,0.5,1c0,0.5-0.2,0.9-0.5,1.1s-0.8,0.4-1.5,0.4
	c-0.2,0-0.5,0-0.8-0.1S9,45.5,8.8,45.3l0.4-0.9c0.2,0.1,0.5,0.2,0.7,0.2c0.2,0.1,0.4,0.1,0.6,0.1c0.2,0,0.4,0,0.6-0.1
	c0.1-0.1,0.2-0.2,0.2-0.3c0-0.1-0.1-0.3-0.2-0.4c-0.1-0.1-0.3-0.2-0.6-0.3c-0.4-0.1-0.8-0.3-1.1-0.5c-0.3-0.2-0.5-0.6-0.5-1
	c0-0.5,0.2-0.8,0.5-1.1c0.3-0.3,0.8-0.4,1.4-0.4c0.2,0,0.5,0,0.8,0.1s0.6,0.2,0.9,0.4L11.9,42.2z"/>
<path fill="#193A68" d="M16.2,42.2c-0.2-0.1-0.5-0.2-0.7-0.2c-0.2-0.1-0.4-0.1-0.6-0.1c-0.2,0-0.3,0-0.4,0.1s-0.1,0.2-0.1,0.3
	c0,0.1,0.1,0.2,0.2,0.2c0.1,0.1,0.3,0.2,0.5,0.2c0.4,0.1,0.8,0.4,1.1,0.6c0.3,0.3,0.5,0.6,0.5,1c0,0.5-0.2,0.9-0.5,1.1
	c-0.3,0.3-0.8,0.4-1.5,0.4c-0.2,0-0.5,0-0.8-0.1c-0.3-0.1-0.6-0.2-0.9-0.4l0.4-0.9c0.2,0.1,0.5,0.2,0.7,0.2c0.2,0.1,0.4,0.1,0.6,0.1
	c0.2,0,0.4,0,0.5-0.1c0.1-0.1,0.2-0.2,0.2-0.3c0-0.1-0.1-0.3-0.2-0.4c-0.1-0.1-0.3-0.2-0.6-0.3c-0.4-0.1-0.8-0.3-1.1-0.5
	c-0.3-0.2-0.5-0.6-0.5-1c0-0.5,0.2-0.8,0.5-1.1c0.3-0.3,0.8-0.4,1.4-0.4c0.2,0,0.5,0,0.8,0.1c0.3,0.1,0.6,0.2,0.9,0.4L16.2,42.2z"/>
<path fill="#193A68" d="M21.2,45.2c-0.2,0.2-0.5,0.4-0.8,0.5c-0.3,0.1-0.6,0.2-0.9,0.2c-0.7,0-1.1-0.2-1.4-0.6
	c-0.3-0.4-0.4-0.9-0.4-1.4v-3H19v3c0,0.3,0.1,0.5,0.2,0.7c0.1,0.2,0.4,0.2,0.6,0.2c0.2,0,0.4,0,0.6-0.1c0.2-0.1,0.4-0.2,0.5-0.3
	v-3.5h1.3v4.9h-0.7L21.2,45.2z"/>
<path fill="#193A68" d="M26.1,40.9l0.3,1c-0.2,0-0.5,0.1-0.8,0.2c-0.3,0.1-0.6,0.3-0.9,0.6v3.1h-1.3v-4.9h0.7l0.4,0.7
	c0.2-0.2,0.4-0.3,0.7-0.5C25.6,41,25.9,40.9,26.1,40.9z"/>
<path fill="#193A68" d="M28.7,45.8c-0.6,0-1-0.1-1.3-0.4c-0.3-0.3-0.4-0.7-0.4-1.1c0-0.5,0.2-0.9,0.5-1.1s0.8-0.4,1.3-0.4h0.9
	c0-0.2-0.1-0.4-0.2-0.6c-0.1-0.1-0.3-0.2-0.6-0.2c-0.2,0-0.5,0-0.7,0.1c-0.3,0.1-0.5,0.1-0.7,0.2l-0.3-1.1c0.2-0.1,0.5-0.2,0.9-0.3
	s0.7-0.1,0.9-0.1c0.6,0,1.1,0.2,1.5,0.5S31,42,31,42.5v3.2h-0.7L30,45.3c-0.2,0.1-0.4,0.3-0.6,0.4C29.1,45.8,28.9,45.8,28.7,45.8z
	 M28,44.3c0,0.1,0.1,0.3,0.2,0.4c0.1,0.1,0.3,0.2,0.5,0.2c0.2,0,0.4,0,0.5-0.1c0.2-0.1,0.4-0.2,0.5-0.4v-0.7h-1
	c-0.2,0-0.4,0.1-0.5,0.2C28.1,43.9,28,44.1,28,44.3z"/>
<path fill="#193A68" d="M33.3,41.4c0.2-0.2,0.5-0.4,0.8-0.5c0.3-0.1,0.6-0.2,0.9-0.2c0.7,0,1.1,0.2,1.4,0.6c0.3,0.4,0.4,0.9,0.4,1.4
	v3h-1.3v-3c0-0.3-0.1-0.5-0.2-0.7c-0.1-0.2-0.4-0.2-0.6-0.2c-0.2,0-0.4,0-0.6,0.1c-0.2,0.1-0.4,0.2-0.6,0.3v3.5h-1.3v-4.9h0.7
	L33.3,41.4z"/>
<path fill="#193A68" d="M40.3,41.9c-0.4,0-0.7,0.1-0.9,0.4c-0.2,0.3-0.3,0.6-0.3,1c0,0.4,0.1,0.8,0.3,1c0.2,0.3,0.5,0.4,0.9,0.4
	c0.2,0,0.4,0,0.6-0.1c0.2-0.1,0.4-0.1,0.6-0.2l0.4,0.9c-0.2,0.2-0.5,0.3-0.8,0.4s-0.6,0.1-0.8,0.1c-0.8,0-1.4-0.2-1.8-0.7
	c-0.4-0.5-0.7-1.1-0.7-1.8s0.2-1.4,0.7-1.9c0.4-0.5,1.1-0.7,1.8-0.7c0.2,0,0.5,0,0.8,0.1s0.6,0.2,0.8,0.4l-0.4,0.9
	c-0.2-0.1-0.4-0.2-0.6-0.2S40.5,41.9,40.3,41.9z"/>
<path fill="#193A68" d="M45.4,45.8c-0.8,0-1.5-0.2-2-0.7s-0.7-1.1-0.7-1.8s0.2-1.4,0.7-1.9c0.4-0.5,1-0.7,1.8-0.7
	c0.8,0,1.3,0.3,1.7,0.8s0.5,1.1,0.5,1.8v0.4H44c0.1,0.3,0.2,0.6,0.4,0.8s0.5,0.3,0.9,0.3c0.2,0,0.4,0,0.6-0.1
	c0.2-0.1,0.4-0.1,0.6-0.2l0.4,0.9c-0.2,0.2-0.5,0.3-0.8,0.4S45.6,45.8,45.4,45.8z M46.1,42.8c-0.1-0.3-0.2-0.6-0.4-0.7
	c-0.2-0.2-0.4-0.2-0.7-0.2c-0.3,0-0.5,0.1-0.7,0.2c-0.2,0.2-0.3,0.4-0.4,0.7H46.1z"/>
<path fill="#193A68" d="M53.8,43.7l-1.6-2.1v4.2h-1.3v-6.8h0.8l2.3,3.1l2.1-3.1h0.8v6.8h-1.3v-3.9l-1.3,1.8L53.8,43.7z"/>
<path fill="#193A68" d="M60,45.8c-0.6,0-1-0.1-1.3-0.4c-0.3-0.3-0.4-0.7-0.4-1.1c0-0.5,0.2-0.9,0.5-1.1s0.8-0.4,1.3-0.4H61
	c0-0.2-0.1-0.4-0.2-0.6c-0.1-0.1-0.3-0.2-0.6-0.2c-0.2,0-0.5,0-0.7,0.1c-0.3,0.1-0.5,0.1-0.7,0.2l-0.3-1.1c0.2-0.1,0.5-0.2,0.9-0.3
	s0.7-0.1,0.9-0.1c0.6,0,1.1,0.2,1.5,0.5s0.6,0.8,0.6,1.3v3.2h-0.7l-0.3-0.4c-0.2,0.1-0.4,0.3-0.6,0.4C60.4,45.8,60.2,45.8,60,45.8z
	 M59.3,44.3c0,0.1,0.1,0.3,0.2,0.4c0.1,0.1,0.3,0.2,0.5,0.2c0.2,0,0.4,0,0.5-0.1c0.2-0.1,0.4-0.2,0.5-0.4v-0.7h-1
	c-0.2,0-0.4,0.1-0.5,0.2C59.4,43.9,59.3,44.1,59.3,44.3z"/>
<path fill="#193A68" d="M64.9,38.7v7.1h-1.3v-7L64.9,38.7z"/>
<path fill="#193A68" d="M67.8,45.8c-0.6,0-1-0.1-1.3-0.4c-0.3-0.3-0.4-0.7-0.4-1.1c0-0.5,0.2-0.9,0.5-1.1s0.8-0.4,1.3-0.4h0.9
	c0-0.2-0.1-0.4-0.2-0.6c-0.1-0.1-0.3-0.2-0.6-0.2c-0.2,0-0.5,0-0.7,0.1c-0.3,0.1-0.5,0.1-0.7,0.2l-0.3-1.1c0.2-0.1,0.5-0.2,0.9-0.3
	s0.7-0.1,0.9-0.1c0.6,0,1.1,0.2,1.5,0.5s0.6,0.8,0.6,1.3v3.2h-0.7l-0.3-0.4c-0.2,0.1-0.4,0.3-0.6,0.4C68.3,45.8,68,45.8,67.8,45.8z
	 M67.1,44.3c0,0.1,0.1,0.3,0.2,0.4c0.1,0.1,0.3,0.2,0.5,0.2c0.2,0,0.4,0,0.5-0.1c0.2-0.1,0.4-0.2,0.5-0.4v-0.7h-1
	c-0.2,0-0.4,0.1-0.5,0.2C67.2,43.9,67.1,44.1,67.1,44.3z"/>
<path fill="#193A68" d="M75.9,38.7v7.1h-0.7l-0.4-0.5c-0.2,0.2-0.5,0.3-0.8,0.4s-0.6,0.2-0.8,0.2c-0.7,0-1.2-0.2-1.6-0.7
	c-0.4-0.5-0.6-1.1-0.6-1.8c0-0.7,0.2-1.3,0.6-1.8c0.4-0.5,1-0.7,1.7-0.7c0.2,0,0.4,0,0.6,0.1s0.4,0.2,0.6,0.3v-2.3L75.9,38.7z
	 M73.7,41.8c-0.5,0-0.8,0.2-0.9,0.5c-0.2,0.3-0.3,0.7-0.3,1c0,0.4,0.1,0.7,0.2,1s0.5,0.5,1,0.5c0.2,0,0.3,0,0.5-0.1s0.3-0.2,0.5-0.2
	v-2.2c-0.1-0.1-0.3-0.2-0.5-0.2S73.8,41.8,73.7,41.8z"/>
<path fill="#193A68" d="M77.9,38.7c0.2,0,0.4,0.1,0.5,0.2c0.1,0.1,0.2,0.3,0.2,0.5s-0.1,0.4-0.2,0.5c-0.1,0.1-0.3,0.2-0.5,0.2
	c-0.2,0-0.4-0.1-0.5-0.2c-0.1-0.1-0.2-0.3-0.2-0.5s0.1-0.4,0.2-0.5C77.5,38.8,77.7,38.7,77.9,38.7z M78.5,40.9v4.9h-1.3v-4.9H78.5z"
	/>
<path fill="#193A68" d="M82.3,45.8c-0.8,0-1.5-0.2-2-0.7s-0.7-1.1-0.7-1.8s0.2-1.4,0.7-1.9c0.4-0.5,1-0.7,1.8-0.7
	c0.8,0,1.3,0.3,1.7,0.8s0.5,1.1,0.5,1.8v0.4H81c0.1,0.3,0.2,0.6,0.4,0.8s0.5,0.3,0.9,0.3c0.2,0,0.4,0,0.6-0.1
	c0.2-0.1,0.4-0.1,0.6-0.2l0.4,0.9c-0.2,0.2-0.5,0.3-0.8,0.4S82.5,45.8,82.3,45.8z M83,42.8c-0.1-0.3-0.2-0.6-0.4-0.7
	c-0.2-0.2-0.4-0.2-0.7-0.2c-0.3,0-0.5,0.1-0.7,0.2c-0.2,0.2-0.3,0.4-0.4,0.7H83z"/>
<path fill="#193A68" d="M92.2,38.7v7.1h-0.7l-0.4-0.5c-0.2,0.2-0.5,0.3-0.8,0.4s-0.6,0.2-0.8,0.2c-0.7,0-1.2-0.2-1.6-0.7
	c-0.4-0.5-0.6-1.1-0.6-1.8c0-0.7,0.2-1.3,0.6-1.8c0.4-0.5,1-0.7,1.7-0.7c0.2,0,0.4,0,0.6,0.1s0.4,0.2,0.6,0.3v-2.3L92.2,38.7z
	 M90,41.8c-0.5,0-0.8,0.2-0.9,0.5c-0.2,0.3-0.3,0.7-0.3,1c0,0.4,0.1,0.7,0.2,1s0.5,0.5,1,0.5c0.2,0,0.3,0,0.5-0.1s0.3-0.2,0.5-0.2
	v-2.2c-0.1-0.1-0.3-0.2-0.5-0.2S90.1,41.8,90,41.8z"/>
<path fill="#193A68" d="M93.8,38.3c0.2,0,0.4,0.1,0.5,0.2c0.2,0.2,0.2,0.4,0.2,0.6c0,0.4-0.1,0.8-0.4,1.2s-0.6,0.7-0.9,0.9L93,40.7
	c0.2-0.1,0.3-0.3,0.4-0.4c0.1-0.1,0.2-0.3,0.2-0.5c-0.1,0-0.2-0.1-0.4-0.2s-0.2-0.3-0.2-0.5c0-0.2,0.1-0.3,0.2-0.5
	C93.4,38.4,93.6,38.3,93.8,38.3z"/>
<path fill="#193A68" d="M96.8,38.9v6.8h-1.3v-6.8H96.8z"/>
<path fill="#193A68" d="M99.6,38.7v7.1h-1.3v-7L99.6,38.7z"/>
<path fill="#193A68" d="M103.4,45.8c-0.8,0-1.5-0.2-2-0.7s-0.7-1.1-0.7-1.8s0.2-1.4,0.7-1.9c0.4-0.5,1-0.7,1.8-0.7
	c0.8,0,1.3,0.3,1.7,0.8s0.5,1.1,0.5,1.8v0.4h-3.3c0.1,0.3,0.2,0.6,0.4,0.8s0.5,0.3,0.9,0.3c0.2,0,0.4,0,0.6-0.1
	c0.2-0.1,0.4-0.1,0.6-0.2l0.4,0.9c-0.2,0.2-0.5,0.3-0.8,0.4S103.6,45.8,103.4,45.8z M104.1,42.8c-0.1-0.3-0.2-0.6-0.4-0.7
	c-0.2-0.2-0.4-0.2-0.7-0.2c-0.3,0-0.5,0.1-0.7,0.2c-0.2,0.2-0.3,0.4-0.4,0.7H104.1z"/>
<path fill="#193A68" d="M108.6,43.5H106l-0.1-1h2.6L108.6,43.5z"/>
<path fill="#193A68" d="M114,38.7v7.1h-0.7l-0.4-0.5c-0.2,0.2-0.5,0.3-0.8,0.4s-0.6,0.2-0.8,0.2c-0.7,0-1.2-0.2-1.6-0.7
	c-0.4-0.5-0.6-1.1-0.6-1.8c0-0.7,0.2-1.3,0.6-1.8c0.4-0.5,1-0.7,1.7-0.7c0.2,0,0.4,0,0.6,0.1s0.4,0.2,0.6,0.3v-2.3L114,38.7z
	 M111.8,41.8c-0.5,0-0.8,0.2-0.9,0.5c-0.2,0.3-0.3,0.7-0.3,1c0,0.4,0.1,0.7,0.2,1s0.5,0.5,1,0.5c0.2,0,0.3,0,0.5-0.1
	s0.3-0.2,0.5-0.2v-2.2c-0.1-0.1-0.3-0.2-0.5-0.2S111.9,41.8,111.8,41.8z"/>
<path fill="#193A68" d="M117.8,45.8c-0.8,0-1.5-0.2-2-0.7s-0.7-1.1-0.7-1.8s0.2-1.4,0.7-1.9c0.4-0.5,1-0.7,1.8-0.7
	c0.8,0,1.3,0.3,1.7,0.8s0.5,1.1,0.5,1.8v0.4h-3.3c0.1,0.3,0.2,0.6,0.4,0.8s0.5,0.3,0.9,0.3c0.2,0,0.4,0,0.6-0.1
	c0.2-0.1,0.4-0.1,0.6-0.2l0.4,0.9c-0.2,0.2-0.5,0.3-0.8,0.4S118,45.8,117.8,45.8z M118.5,42.8c-0.1-0.3-0.2-0.6-0.4-0.7
	c-0.2-0.2-0.4-0.2-0.7-0.2c-0.3,0-0.5,0.1-0.7,0.2c-0.2,0.2-0.3,0.4-0.4,0.7H118.5z"/>
<path fill="#193A68" d="M123,43.5h-2.6l-0.1-1h2.6L123,43.5z"/>
<path fill="#193A68" d="M127.2,42.8h-1.9v2.9H124v-6.8h3.9l0.2,1h-2.8v1.9h1.7L127.2,42.8z"/>
<path fill="#193A68" d="M131.5,40.9l0.3,1c-0.2,0-0.5,0.1-0.8,0.2c-0.3,0.1-0.6,0.3-0.9,0.6v3.1h-1.3v-4.9h0.7l0.4,0.7
	c0.2-0.2,0.4-0.3,0.7-0.5C130.9,41,131.2,40.9,131.5,40.9z"/>
<path fill="#193A68" d="M134,45.8c-0.6,0-1-0.1-1.3-0.4c-0.3-0.3-0.4-0.7-0.4-1.1c0-0.5,0.2-0.9,0.5-1.1s0.8-0.4,1.3-0.4h0.9
	c0-0.2-0.1-0.4-0.2-0.6c-0.1-0.1-0.3-0.2-0.6-0.2c-0.2,0-0.5,0-0.7,0.1c-0.3,0.1-0.5,0.1-0.7,0.2l-0.3-1.1c0.2-0.1,0.5-0.2,0.9-0.3
	s0.7-0.1,0.9-0.1c0.6,0,1.1,0.2,1.5,0.5s0.6,0.8,0.6,1.3v3.2h-0.7l-0.3-0.4c-0.2,0.1-0.4,0.3-0.6,0.4
	C134.5,45.8,134.2,45.8,134,45.8z M133.4,44.3c0,0.1,0.1,0.3,0.2,0.4c0.1,0.1,0.3,0.2,0.5,0.2c0.2,0,0.4,0,0.5-0.1
	c0.2-0.1,0.4-0.2,0.5-0.4v-0.7h-1c-0.2,0-0.4,0.1-0.5,0.2C133.4,43.9,133.4,44.1,133.4,44.3z"/>
<path fill="#193A68" d="M138.6,41.4c0.2-0.2,0.5-0.4,0.8-0.5c0.3-0.1,0.6-0.2,0.9-0.2c0.7,0,1.1,0.2,1.4,0.6
	c0.3,0.4,0.4,0.9,0.4,1.4v3h-1.3v-3c0-0.3-0.1-0.5-0.2-0.7c-0.1-0.2-0.4-0.2-0.6-0.2c-0.2,0-0.4,0-0.6,0.1c-0.2,0.1-0.4,0.2-0.6,0.3
	v3.5h-1.3v-4.9h0.7L138.6,41.4z"/>
<path fill="#193A68" d="M145.7,41.9c-0.4,0-0.7,0.1-0.9,0.4c-0.2,0.3-0.3,0.6-0.3,1c0,0.4,0.1,0.8,0.3,1c0.2,0.3,0.5,0.4,0.9,0.4
	c0.2,0,0.4,0,0.6-0.1c0.2-0.1,0.4-0.1,0.6-0.2l0.4,0.9c-0.2,0.2-0.5,0.3-0.8,0.4s-0.6,0.1-0.8,0.1c-0.8,0-1.4-0.2-1.8-0.7
	c-0.4-0.5-0.7-1.1-0.7-1.8s0.2-1.4,0.7-1.9c0.4-0.5,1.1-0.7,1.8-0.7c0.2,0,0.5,0,0.8,0.1s0.6,0.2,0.8,0.4l-0.4,0.9
	c-0.2-0.1-0.4-0.2-0.6-0.2S145.9,41.9,145.7,41.9z"/>
<path fill="#193A68" d="M150.7,45.8c-0.8,0-1.5-0.2-2-0.7s-0.7-1.1-0.7-1.8s0.2-1.4,0.7-1.9c0.4-0.5,1-0.7,1.8-0.7
	c0.8,0,1.3,0.3,1.7,0.8s0.5,1.1,0.5,1.8v0.4h-3.3c0.1,0.3,0.2,0.6,0.4,0.8s0.5,0.3,0.9,0.3c0.2,0,0.4,0,0.6-0.1
	c0.2-0.1,0.4-0.1,0.6-0.2l0.4,0.9c-0.2,0.2-0.5,0.3-0.8,0.4S150.9,45.8,150.7,45.8z M151.4,42.8c-0.1-0.3-0.2-0.6-0.4-0.7
	c-0.2-0.2-0.4-0.2-0.7-0.2c-0.3,0-0.5,0.1-0.7,0.2c-0.2,0.2-0.3,0.4-0.4,0.7H151.4z"/>
</svg>
