<svg xmlns="http://www.w3.org/2000/svg" viewBox="0 0 48 48">
  <path d="M18.5 4C16.324625 4 14.148281 4.8292813 12.488281 6.4882812C9.1682812 9.8072813 9.1682812 15.190766 12.488281 18.509766L14.986328 21.007812C16.714328 21.021812 17.791125 21.255375 18.828125 21.484375C19.835125 21.706375 20.978313 21.956141 23.445312 21.994141C23.445312 21.994141 28.981047 21.998047 28.998047 21.998047C31.454047 21.998047 33.487203 23.774375 33.908203 26.109375C33.909203 26.108375 33.911109 26.108422 33.912109 26.107422L41.509766 18.509766C44.830766 15.190766 44.829766 9.8082812 41.509766 6.4882812C38.190766 3.1702812 32.808281 3.1702812 29.488281 6.4882812L27 8.9785156L24.509766 6.4882812C22.850266 4.8292813 20.675375 4 18.5 4 z M 41.798828 22.826172C40.795578 22.738047 39.7625 23.080516 39 23.853516L32.363281 30.589844C31.474281 31.489844 30.265 31.999859 29 32.005859L21 32C20.448 32 20 31.552 20 31C20 30.448 20.448 30 21 30L29 30C30.657 30 32 28.657 32 27C32 25.343 30.657 24 29 24C28.983 24 23.443062 24.002 23.414062 24C20.778063 23.959 19.513391 23.6825 18.400391 23.4375C17.388391 23.2145 16.431172 23.005859 14.826172 23.005859C7.4941719 23.005859 3.3087656 32.005672 3.1347656 32.388672C2.9087656 32.884672 2.9699687 33.462391 3.2929688 33.900391L10.292969 43.394531C10.577969 43.781531 11.026094 44 11.496094 44C11.591094 44 11.68625 43.990656 11.78125 43.972656C12.34725 43.864656 12.804172 43.437859 12.951172 42.880859C13.030172 42.585859 13.795 40.005859 16.5 40.005859C18.452 40.005859 20.470828 40.257 22.423828 40.5C24.412828 40.749 26.471 41 28.5 41L28.519531 41C30.694531 41 32.780594 40.133937 34.308594 38.585938L43.916016 28.837891C45.089016 27.648891 45.349969 25.772719 44.417969 24.386719C43.776469 23.433219 42.802078 22.914297 41.798828 22.826172 z" fill="#FFFFFF" />
</svg>